<svg id="Layer_1" data-name="Layer 1" xmlns="http://www.w3.org/2000/svg" width="502.21" height="622.7417" viewBox="0 0 502.21 622.7417">
  <defs>
    <style>
      .cls-1, .cls-10, .cls-2, .cls-4, .cls-6 {
        fill: none;
      }

      .cls-1, .cls-10, .cls-6, .cls-8 {
        stroke: #000;
      }

      .cls-1, .cls-10, .cls-2, .cls-4, .cls-6, .cls-8 {
        stroke-miterlimit: 10;
      }

      .cls-2 {
        stroke: #ababab;
      }

      .cls-3 {
        fill: #ababab;
      }

      .cls-4 {
        stroke: #4275b8;
      }

      .cls-5, .cls-8 {
        fill: #4275b8;
      }

      .cls-10, .cls-6, .cls-8 {
        stroke-width: 0.5px;
      }

      .cls-11, .cls-7, .cls-9 {
        font-size: 12px;
      }

      .cls-7, .cls-9 {
        font-family: Courier, Courier;
      }

      .cls-9 {
        fill: #fff;
      }

      .cls-10 {
        fill-rule: evenodd;
      }

      .cls-11 {
        font-family: Helvetica, Helvetica;
      }
    </style>
  </defs>
  <title>crossbar-implementation</title>
  <line class="cls-1" x1="101.3037" y1="55.4702" x2="101.3037" y2="554.4702"/>
  <line class="cls-1" x1="126.3037" y1="55.4702" x2="126.3037" y2="554.4702"/>
  <line class="cls-1" x1="151.3037" y1="55.4702" x2="151.3037" y2="554.4702"/>
  <line class="cls-1" x1="176.3037" y1="55.4702" x2="176.3037" y2="554.4702"/>
  <line class="cls-1" x1="201.3037" y1="55.4702" x2="201.3037" y2="554.4702"/>
  <line class="cls-1" x1="226.3037" y1="55.4702" x2="226.3037" y2="554.4702"/>
  <line class="cls-1" x1="251.3037" y1="55.4702" x2="251.3037" y2="554.4702"/>
  <line class="cls-1" x1="276.3037" y1="55.4702" x2="276.3037" y2="554.4702"/>
  <g>
    <line class="cls-1" x1="101.8037" y1="28.9702" x2="101.8037" y2="47.8857"/>
    <polygon points="97.714 44.572 98.446 43.89 101.803 47.502 105.16 43.89 105.893 44.572 101.803 48.97 97.714 44.572"/>
  </g>
  <g>
    <line class="cls-1" x1="126.8037" y1="28.9702" x2="126.8037" y2="47.8857"/>
    <polygon points="122.714 44.572 123.446 43.89 126.803 47.502 130.16 43.89 130.893 44.572 126.803 48.97 122.714 44.572"/>
  </g>
  <g>
    <line class="cls-1" x1="151.8037" y1="28.9702" x2="151.8037" y2="47.8857"/>
    <polygon points="147.714 44.572 148.446 43.89 151.803 47.502 155.16 43.89 155.893 44.572 151.803 48.97 147.714 44.572"/>
  </g>
  <g>
    <line class="cls-1" x1="176.8037" y1="28.9702" x2="176.8037" y2="47.8857"/>
    <polygon points="172.714 44.572 173.446 43.89 176.803 47.502 180.16 43.89 180.893 44.572 176.803 48.97 172.714 44.572"/>
  </g>
  <g>
    <line class="cls-1" x1="201.8037" y1="28.9702" x2="201.8037" y2="47.8857"/>
    <polygon points="197.714 44.572 198.446 43.89 201.803 47.502 205.16 43.89 205.893 44.572 201.803 48.97 197.714 44.572"/>
  </g>
  <g>
    <line class="cls-1" x1="226.8037" y1="28.9702" x2="226.8037" y2="47.8857"/>
    <polygon points="222.714 44.572 223.446 43.89 226.803 47.502 230.16 43.89 230.893 44.572 226.803 48.97 222.714 44.572"/>
  </g>
  <g>
    <line class="cls-1" x1="251.8037" y1="28.9702" x2="251.8037" y2="47.8857"/>
    <polygon points="247.714 44.572 248.446 43.89 251.803 47.502 255.16 43.89 255.893 44.572 251.803 48.97 247.714 44.572"/>
  </g>
  <g>
    <line class="cls-1" x1="276.8037" y1="28.9702" x2="276.8037" y2="47.8857"/>
    <polygon points="272.714 44.572 273.446 43.89 276.803 47.502 280.16 43.89 280.893 44.572 276.803 48.97 272.714 44.572"/>
  </g>
  <g>
    <line class="cls-1" x1="442.5823" y1="554.1155" x2="442.5823" y2="578.031"/>
    <polygon points="438.492 574.717 439.225 574.035 442.581 577.647 445.939 574.035 446.671 574.717 442.581 579.115 438.492 574.717"/>
  </g>
  <g>
    <line class="cls-1" x1="449.7537" y1="554.1155" x2="449.7537" y2="578.031"/>
    <polygon points="445.664 574.717 446.396 574.035 449.753 577.647 453.11 574.035 453.843 574.717 449.753 579.115 445.664 574.717"/>
  </g>
  <g>
    <line class="cls-1" x1="456.9251" y1="554.1155" x2="456.9251" y2="578.031"/>
    <polygon points="452.835 574.717 453.568 574.035 456.924 577.647 460.282 574.035 461.014 574.717 456.924 579.115 452.835 574.717"/>
  </g>
  <g>
    <line class="cls-1" x1="464.0966" y1="554.1155" x2="464.0966" y2="578.031"/>
    <polygon points="460.007 574.717 460.739 574.035 464.096 577.647 467.453 574.035 468.185 574.717 464.096 579.115 460.007 574.717"/>
  </g>
  <g>
    <line class="cls-1" x1="471.268" y1="554.1155" x2="471.268" y2="578.031"/>
    <polygon points="467.178 574.717 467.911 574.035 471.267 577.647 474.624 574.035 475.357 574.717 471.267 579.115 467.178 574.717"/>
  </g>
  <g>
    <line class="cls-1" x1="478.4394" y1="554.1155" x2="478.4394" y2="578.031"/>
    <polygon points="474.35 574.717 475.082 574.035 478.438 577.647 481.796 574.035 482.528 574.717 478.438 579.115 474.35 574.717"/>
  </g>
  <g>
    <line class="cls-1" x1="485.6109" y1="554.1155" x2="485.6109" y2="578.031"/>
    <polygon points="481.521 574.717 482.253 574.035 485.61 577.647 488.967 574.035 489.7 574.717 485.61 579.115 481.521 574.717"/>
  </g>
  <g>
    <line class="cls-1" x1="492.7823" y1="554.1155" x2="492.7823" y2="578.031"/>
    <polygon points="488.692 574.717 489.425 574.035 492.781 577.647 496.139 574.035 496.871 574.717 492.781 579.115 488.692 574.717"/>
  </g>
  <g>
    <line class="cls-1" x1="78.8037" y1="65.4702" x2="333.7192" y2="65.4702"/>
    <polygon points="330.406 69.56 329.724 68.828 333.335 65.471 329.724 62.114 330.406 61.381 334.804 65.471 330.406 69.56"/>
  </g>
  <g>
    <line class="cls-1" x1="78.8037" y1="90.4702" x2="333.7192" y2="90.4702"/>
    <polygon points="330.406 94.56 329.724 93.828 333.335 90.471 329.724 87.114 330.406 86.381 334.804 90.471 330.406 94.56"/>
  </g>
  <g>
    <line class="cls-1" x1="78.8037" y1="115.4702" x2="333.7192" y2="115.4702"/>
    <polygon points="330.406 119.56 329.724 118.828 333.335 115.471 329.724 112.114 330.406 111.381 334.804 115.471 330.406 119.56"/>
  </g>
  <g>
    <line class="cls-1" x1="78.8037" y1="140.4702" x2="333.7192" y2="140.4702"/>
    <polygon points="330.406 144.56 329.724 143.828 333.335 140.471 329.724 137.114 330.406 136.381 334.804 140.471 330.406 144.56"/>
  </g>
  <g>
    <line class="cls-1" x1="78.8037" y1="165.4702" x2="333.7192" y2="165.4702"/>
    <polygon points="330.406 169.56 329.724 168.828 333.335 165.471 329.724 162.114 330.406 161.381 334.804 165.471 330.406 169.56"/>
  </g>
  <g>
    <line class="cls-1" x1="78.8037" y1="190.4702" x2="333.7192" y2="190.4702"/>
    <polygon points="330.406 194.56 329.724 193.828 333.335 190.471 329.724 187.114 330.406 186.381 334.804 190.471 330.406 194.56"/>
  </g>
  <g>
    <line class="cls-1" x1="78.8037" y1="215.4702" x2="333.7192" y2="215.4702"/>
    <polygon points="330.406 219.56 329.724 218.828 333.335 215.471 329.724 212.114 330.406 211.381 334.804 215.471 330.406 219.56"/>
  </g>
  <g>
    <line class="cls-1" x1="78.8037" y1="240.4702" x2="333.7192" y2="240.4702"/>
    <polygon points="330.406 244.56 329.724 243.828 333.335 240.471 329.724 237.114 330.406 236.381 334.804 240.471 330.406 244.56"/>
  </g>
  <g>
    <line class="cls-1" x1="78.8037" y1="265.4702" x2="333.7192" y2="265.4702"/>
    <polygon points="330.406 269.56 329.724 268.828 333.335 265.471 329.724 262.114 330.406 261.381 334.804 265.471 330.406 269.56"/>
  </g>
  <g>
    <line class="cls-1" x1="78.8037" y1="290.4702" x2="333.7192" y2="290.4702"/>
    <polygon points="330.406 294.56 329.724 293.828 333.335 290.471 329.724 287.114 330.406 286.381 334.804 290.471 330.406 294.56"/>
  </g>
  <g>
    <line class="cls-1" x1="78.8037" y1="315.4702" x2="333.7192" y2="315.4702"/>
    <polygon points="330.406 319.56 329.724 318.828 333.335 315.471 329.724 312.114 330.406 311.381 334.804 315.471 330.406 319.56"/>
  </g>
  <g>
    <line class="cls-1" x1="78.8037" y1="340.4702" x2="333.7192" y2="340.4702"/>
    <polygon points="330.406 344.56 329.724 343.828 333.335 340.471 329.724 337.114 330.406 336.381 334.804 340.471 330.406 344.56"/>
  </g>
  <g>
    <line class="cls-1" x1="78.8037" y1="365.4702" x2="333.7192" y2="365.4702"/>
    <polygon points="330.406 369.56 329.724 368.828 333.335 365.471 329.724 362.114 330.406 361.381 334.804 365.471 330.406 369.56"/>
  </g>
  <g>
    <line class="cls-1" x1="78.8037" y1="390.4702" x2="333.7192" y2="390.4702"/>
    <polygon points="330.406 394.56 329.724 393.828 333.335 390.471 329.724 387.114 330.406 386.381 334.804 390.471 330.406 394.56"/>
  </g>
  <g>
    <line class="cls-1" x1="78.8037" y1="415.4702" x2="333.7192" y2="415.4702"/>
    <polygon points="330.406 419.56 329.724 418.828 333.335 415.471 329.724 412.114 330.406 411.381 334.804 415.471 330.406 419.56"/>
  </g>
  <g>
    <line class="cls-1" x1="78.8037" y1="440.4702" x2="333.7192" y2="440.4702"/>
    <polygon points="330.406 444.56 329.724 443.828 333.335 440.471 329.724 437.114 330.406 436.381 334.804 440.471 330.406 444.56"/>
  </g>
  <g>
    <line class="cls-1" x1="78.8037" y1="465.4702" x2="333.7192" y2="465.4702"/>
    <polygon points="330.406 469.56 329.724 468.828 333.335 465.471 329.724 462.114 330.406 461.381 334.804 465.471 330.406 469.56"/>
  </g>
  <g>
    <line class="cls-1" x1="78.8037" y1="490.4702" x2="333.7192" y2="490.4702"/>
    <polygon points="330.406 494.56 329.724 493.828 333.335 490.471 329.724 487.114 330.406 486.381 334.804 490.471 330.406 494.56"/>
  </g>
  <g>
    <line class="cls-1" x1="78.8037" y1="515.4702" x2="333.7192" y2="515.4702"/>
    <polygon points="330.406 519.56 329.724 518.828 333.335 515.471 329.724 512.114 330.406 511.381 334.804 515.471 330.406 519.56"/>
  </g>
  <g>
    <line class="cls-1" x1="78.8037" y1="540.4702" x2="333.7192" y2="540.4702"/>
    <polygon points="330.406 544.56 329.724 543.828 333.335 540.471 329.724 537.114 330.406 536.381 334.804 540.471 330.406 544.56"/>
  </g>
  <g>
    <line class="cls-1" x1="353.8662" y1="65.4702" x2="379.4692" y2="65.4702"/>
    <polygon points="376.156 69.56 375.474 68.828 379.085 65.471 375.474 62.114 376.156 61.381 380.554 65.471 376.156 69.56"/>
  </g>
  <g>
    <line class="cls-1" x1="353.8662" y1="90.4702" x2="379.4692" y2="90.4702"/>
    <polygon points="376.156 94.56 375.474 93.828 379.085 90.471 375.474 87.114 376.156 86.381 380.554 90.471 376.156 94.56"/>
  </g>
  <g>
    <line class="cls-1" x1="353.8662" y1="115.4702" x2="379.4692" y2="115.4702"/>
    <polygon points="376.156 119.56 375.474 118.828 379.085 115.471 375.474 112.114 376.156 111.381 380.554 115.471 376.156 119.56"/>
  </g>
  <g>
    <line class="cls-1" x1="353.8662" y1="140.4702" x2="379.4692" y2="140.4702"/>
    <polygon points="376.156 144.56 375.474 143.828 379.085 140.471 375.474 137.114 376.156 136.381 380.554 140.471 376.156 144.56"/>
  </g>
  <g>
    <line class="cls-1" x1="353.8662" y1="165.4702" x2="379.4692" y2="165.4702"/>
    <polygon points="376.156 169.56 375.474 168.828 379.085 165.471 375.474 162.114 376.156 161.381 380.554 165.471 376.156 169.56"/>
  </g>
  <g>
    <line class="cls-1" x1="353.8662" y1="190.4702" x2="379.4692" y2="190.4702"/>
    <polygon points="376.156 194.56 375.474 193.828 379.085 190.471 375.474 187.114 376.156 186.381 380.554 190.471 376.156 194.56"/>
  </g>
  <g>
    <line class="cls-1" x1="353.8662" y1="215.4702" x2="379.4692" y2="215.4702"/>
    <polygon points="376.156 219.56 375.474 218.828 379.085 215.471 375.474 212.114 376.156 211.381 380.554 215.471 376.156 219.56"/>
  </g>
  <g>
    <line class="cls-1" x1="353.8662" y1="240.4702" x2="379.4692" y2="240.4702"/>
    <polygon points="376.156 244.56 375.474 243.828 379.085 240.471 375.474 237.114 376.156 236.381 380.554 240.471 376.156 244.56"/>
  </g>
  <g>
    <line class="cls-1" x1="353.8662" y1="265.4702" x2="379.4692" y2="265.4702"/>
    <polygon points="376.156 269.56 375.474 268.828 379.085 265.471 375.474 262.114 376.156 261.381 380.554 265.471 376.156 269.56"/>
  </g>
  <g>
    <line class="cls-1" x1="353.8662" y1="290.4702" x2="379.4692" y2="290.4702"/>
    <polygon points="376.156 294.56 375.474 293.828 379.085 290.471 375.474 287.114 376.156 286.381 380.554 290.471 376.156 294.56"/>
  </g>
  <g>
    <line class="cls-1" x1="353.8662" y1="315.4702" x2="379.4692" y2="315.4702"/>
    <polygon points="376.156 319.56 375.474 318.828 379.085 315.471 375.474 312.114 376.156 311.381 380.554 315.471 376.156 319.56"/>
  </g>
  <g>
    <line class="cls-1" x1="353.8662" y1="340.4702" x2="379.4692" y2="340.4702"/>
    <polygon points="376.156 344.56 375.474 343.828 379.085 340.471 375.474 337.114 376.156 336.381 380.554 340.471 376.156 344.56"/>
  </g>
  <g>
    <line class="cls-1" x1="353.8662" y1="365.4702" x2="379.4692" y2="365.4702"/>
    <polygon points="376.156 369.56 375.474 368.828 379.085 365.471 375.474 362.114 376.156 361.381 380.554 365.471 376.156 369.56"/>
  </g>
  <g>
    <line class="cls-1" x1="353.8662" y1="390.4702" x2="379.4692" y2="390.4702"/>
    <polygon points="376.156 394.56 375.474 393.828 379.085 390.471 375.474 387.114 376.156 386.381 380.554 390.471 376.156 394.56"/>
  </g>
  <g>
    <line class="cls-1" x1="353.8662" y1="415.4702" x2="379.4692" y2="415.4702"/>
    <polygon points="376.156 419.56 375.474 418.828 379.085 415.471 375.474 412.114 376.156 411.381 380.554 415.471 376.156 419.56"/>
  </g>
  <g>
    <line class="cls-1" x1="353.8662" y1="440.4702" x2="379.4692" y2="440.4702"/>
    <polygon points="376.156 444.56 375.474 443.828 379.085 440.471 375.474 437.114 376.156 436.381 380.554 440.471 376.156 444.56"/>
  </g>
  <g>
    <line class="cls-1" x1="353.8662" y1="465.4702" x2="379.4692" y2="465.4702"/>
    <polygon points="376.156 469.56 375.474 468.828 379.085 465.471 375.474 462.114 376.156 461.381 380.554 465.471 376.156 469.56"/>
  </g>
  <g>
    <line class="cls-1" x1="353.8662" y1="490.4702" x2="379.4692" y2="490.4702"/>
    <polygon points="376.156 494.56 375.474 493.828 379.085 490.471 375.474 487.114 376.156 486.381 380.554 490.471 376.156 494.56"/>
  </g>
  <g>
    <line class="cls-1" x1="353.8662" y1="515.4702" x2="379.4692" y2="515.4702"/>
    <polygon points="376.156 519.56 375.474 518.828 379.085 515.471 375.474 512.114 376.156 511.381 380.554 515.471 376.156 519.56"/>
  </g>
  <g>
    <line class="cls-1" x1="353.8662" y1="540.4702" x2="379.4692" y2="540.4702"/>
    <polygon points="376.156 544.56 375.474 543.828 379.085 540.471 375.474 537.114 376.156 536.381 380.554 540.471 376.156 544.56"/>
  </g>
  <g>
    <line class="cls-2" x1="408.0121" y1="65.4702" x2="432.6151" y2="65.4702"/>
    <polygon class="cls-3" points="429.302 69.56 428.619 68.828 432.231 65.471 428.619 62.114 429.302 61.381 433.7 65.471 429.302 69.56"/>
  </g>
  <g>
    <line class="cls-4" x1="408.0121" y1="90.4702" x2="432.6151" y2="90.4702"/>
    <polygon class="cls-5" points="429.302 94.56 428.619 93.828 432.231 90.471 428.619 87.114 429.302 86.381 433.7 90.471 429.302 94.56"/>
  </g>
  <g>
    <line class="cls-2" x1="408.0121" y1="115.4702" x2="432.6151" y2="115.4702"/>
    <polygon class="cls-3" points="429.302 119.56 428.619 118.828 432.231 115.471 428.619 112.114 429.302 111.381 433.7 115.471 429.302 119.56"/>
  </g>
  <g>
    <line class="cls-4" x1="408.0121" y1="140.4702" x2="432.6151" y2="140.4702"/>
    <polygon class="cls-5" points="429.302 144.56 428.619 143.828 432.231 140.471 428.619 137.114 429.302 136.381 433.7 140.471 429.302 144.56"/>
  </g>
  <g>
    <line class="cls-2" x1="408.0121" y1="165.4702" x2="432.6151" y2="165.4702"/>
    <polygon class="cls-3" points="429.302 169.56 428.619 168.828 432.231 165.471 428.619 162.114 429.302 161.381 433.7 165.471 429.302 169.56"/>
  </g>
  <g>
    <line class="cls-2" x1="408.0121" y1="190.4702" x2="432.6151" y2="190.4702"/>
    <polygon class="cls-3" points="429.302 194.56 428.619 193.828 432.231 190.471 428.619 187.114 429.302 186.381 433.7 190.471 429.302 194.56"/>
  </g>
  <g>
    <line class="cls-4" x1="408.0121" y1="215.4702" x2="432.6151" y2="215.4702"/>
    <polygon class="cls-5" points="429.302 219.56 428.619 218.828 432.231 215.471 428.619 212.114 429.302 211.381 433.7 215.471 429.302 219.56"/>
  </g>
  <g>
    <line class="cls-2" x1="408.0121" y1="240.4702" x2="432.6151" y2="240.4702"/>
    <polygon class="cls-3" points="429.302 244.56 428.619 243.828 432.231 240.471 428.619 237.114 429.302 236.381 433.7 240.471 429.302 244.56"/>
  </g>
  <g>
    <line class="cls-4" x1="408.0121" y1="265.4702" x2="432.6151" y2="265.4702"/>
    <polygon class="cls-5" points="429.302 269.56 428.619 268.828 432.231 265.471 428.619 262.114 429.302 261.381 433.7 265.471 429.302 269.56"/>
  </g>
  <g>
    <line class="cls-2" x1="408.0121" y1="290.4702" x2="432.6151" y2="290.4702"/>
    <polygon class="cls-3" points="429.302 294.56 428.619 293.828 432.231 290.471 428.619 287.114 429.302 286.381 433.7 290.471 429.302 294.56"/>
  </g>
  <g>
    <line class="cls-2" x1="408.0121" y1="315.4702" x2="432.6151" y2="315.4702"/>
    <polygon class="cls-3" points="429.302 319.56 428.619 318.828 432.231 315.471 428.619 312.114 429.302 311.381 433.7 315.471 429.302 319.56"/>
  </g>
  <g>
    <line class="cls-2" x1="408.0121" y1="340.4702" x2="432.6151" y2="340.4702"/>
    <polygon class="cls-3" points="429.302 344.56 428.619 343.828 432.231 340.471 428.619 337.114 429.302 336.381 433.7 340.471 429.302 344.56"/>
  </g>
  <g>
    <line class="cls-2" x1="408.0121" y1="365.4702" x2="432.6151" y2="365.4702"/>
    <polygon class="cls-3" points="429.302 369.56 428.619 368.828 432.231 365.471 428.619 362.114 429.302 361.381 433.7 365.471 429.302 369.56"/>
  </g>
  <g>
    <line class="cls-4" x1="408.0121" y1="390.4702" x2="432.6151" y2="390.4702"/>
    <polygon class="cls-5" points="429.302 394.56 428.619 393.828 432.231 390.471 428.619 387.114 429.302 386.381 433.7 390.471 429.302 394.56"/>
  </g>
  <g>
    <line class="cls-4" x1="408.0121" y1="415.4702" x2="432.6151" y2="415.4702"/>
    <polygon class="cls-5" points="429.302 419.56 428.619 418.828 432.231 415.471 428.619 412.114 429.302 411.381 433.7 415.471 429.302 419.56"/>
  </g>
  <g>
    <line class="cls-2" x1="408.0121" y1="440.4702" x2="432.6151" y2="440.4702"/>
    <polygon class="cls-3" points="429.302 444.56 428.619 443.828 432.231 440.471 428.619 437.114 429.302 436.381 433.7 440.471 429.302 444.56"/>
  </g>
  <g>
    <line class="cls-2" x1="408.0121" y1="465.4702" x2="432.6151" y2="465.4702"/>
    <polygon class="cls-3" points="429.302 469.56 428.619 468.828 432.231 465.471 428.619 462.114 429.302 461.381 433.7 465.471 429.302 469.56"/>
  </g>
  <g>
    <line class="cls-4" x1="408.0121" y1="490.4702" x2="432.6151" y2="490.4702"/>
    <polygon class="cls-5" points="429.302 494.56 428.619 493.828 432.231 490.471 428.619 487.114 429.302 486.381 433.7 490.471 429.302 494.56"/>
  </g>
  <g>
    <line class="cls-2" x1="408.0121" y1="515.4702" x2="432.6151" y2="515.4702"/>
    <polygon class="cls-3" points="429.302 519.56 428.619 518.828 432.231 515.471 428.619 512.114 429.302 511.381 433.7 515.471 429.302 519.56"/>
  </g>
  <g>
    <line class="cls-4" x1="408.0121" y1="540.4702" x2="432.6151" y2="540.4702"/>
    <polygon class="cls-5" points="429.302 544.56 428.619 543.828 432.231 540.471 428.619 537.114 429.302 536.381 433.7 540.471 429.302 544.56"/>
  </g>
  <rect class="cls-6" x="433.96" y="56.4702" width="68" height="18"/>
  <text class="cls-7" transform="translate(438.7931 69.0534)">00000000</text>
  <text class="cls-7" transform="translate(340.8869 69.0534)">4</text>
  <text class="cls-7" transform="translate(98.2031 25.0952)">1</text>
  <text class="cls-7" transform="translate(123.2031 25.0952)">0</text>
  <text class="cls-7" transform="translate(148.2031 25.0952)">0</text>
  <text class="cls-7" transform="translate(173.2031 25.0952)">1</text>
  <text class="cls-7" transform="translate(198.2031 25.0952)">1</text>
  <text class="cls-7" transform="translate(223.2031 25.0952)">0</text>
  <text class="cls-7" transform="translate(248.2031 25.0952)">1</text>
  <text class="cls-7" transform="translate(273.2031 25.0952)">1</text>
  <text class="cls-7" transform="translate(389.5535 69.0534)">5</text>
  <text class="cls-7" transform="translate(340.8869 94.0534)">5</text>
  <text class="cls-7" transform="translate(340.8869 119.0534)">2</text>
  <text class="cls-7" transform="translate(340.8869 144.0534)">5</text>
  <text class="cls-7" transform="translate(340.8869 169.0534)">3</text>
  <text class="cls-7" transform="translate(340.8869 194.0534)">3</text>
  <text class="cls-7" transform="translate(340.8869 219.0534)">5</text>
  <text class="cls-7" transform="translate(340.8869 244.0534)">3</text>
  <text class="cls-7" transform="translate(340.8869 269.0534)">6</text>
  <text class="cls-7" transform="translate(340.8869 294.0534)">4</text>
  <text class="cls-7" transform="translate(340.8869 319.0534)">4</text>
  <text class="cls-7" transform="translate(340.8869 344.0534)">3</text>
  <text class="cls-7" transform="translate(340.8869 369.0534)">4</text>
  <text class="cls-7" transform="translate(340.8869 394.0534)">5</text>
  <text class="cls-7" transform="translate(340.8869 419.0534)">5</text>
  <text class="cls-7" transform="translate(340.8869 444.0534)">3</text>
  <text class="cls-7" transform="translate(340.8869 469.0534)">4</text>
  <text class="cls-7" transform="translate(340.8869 494.0534)">5</text>
  <text class="cls-7" transform="translate(340.8869 519.0534)">1</text>
  <text class="cls-7" transform="translate(340.8869 544.0534)">6</text>
  <rect class="cls-8" x="433.96" y="81.4702" width="68" height="18"/>
  <text class="cls-9" transform="translate(438.7931 94.0534)">10011011</text>
  <rect class="cls-6" x="433.96" y="106.4702" width="68" height="18"/>
  <text class="cls-7" transform="translate(438.7931 119.0534)">00000000</text>
  <rect class="cls-8" x="433.96" y="131.4702" width="68" height="18"/>
  <text class="cls-9" transform="translate(438.7931 144.0534)">10011011</text>
  <rect class="cls-6" x="433.96" y="156.4702" width="68" height="18"/>
  <text class="cls-7" transform="translate(438.7931 169.0534)">00000000</text>
  <rect class="cls-6" x="433.96" y="181.4702" width="68" height="18"/>
  <text class="cls-7" transform="translate(438.7931 194.0534)">00000000</text>
  <rect class="cls-8" x="433.96" y="206.4702" width="68" height="18"/>
  <text class="cls-9" transform="translate(438.7931 219.0534)">10011011</text>
  <rect class="cls-6" x="433.96" y="231.4702" width="68" height="18"/>
  <text class="cls-7" transform="translate(438.7931 244.0534)">00000000</text>
  <rect class="cls-8" x="433.96" y="256.4702" width="68" height="18"/>
  <text class="cls-9" transform="translate(438.7931 269.0534)">10011011</text>
  <rect class="cls-6" x="433.96" y="281.4702" width="68" height="18"/>
  <text class="cls-7" transform="translate(438.7931 294.0534)">00000000</text>
  <rect class="cls-6" x="433.96" y="306.4702" width="68" height="18"/>
  <text class="cls-7" transform="translate(438.7931 319.0534)">00000000</text>
  <rect class="cls-6" x="433.96" y="331.4702" width="68" height="18"/>
  <text class="cls-7" transform="translate(438.7931 344.0534)">00000000</text>
  <rect class="cls-6" x="433.96" y="356.4702" width="68" height="18"/>
  <text class="cls-7" transform="translate(438.7931 369.0534)">00000000</text>
  <rect class="cls-8" x="433.96" y="381.4702" width="68" height="18"/>
  <text class="cls-9" transform="translate(438.7931 394.0534)">10011011</text>
  <rect class="cls-8" x="433.96" y="406.4702" width="68" height="18"/>
  <text class="cls-9" transform="translate(438.7931 419.0534)">10011011</text>
  <rect class="cls-6" x="433.96" y="431.4702" width="68" height="18"/>
  <text class="cls-7" transform="translate(438.7931 444.0534)">00000000</text>
  <rect class="cls-6" x="433.96" y="456.4702" width="68" height="18"/>
  <text class="cls-7" transform="translate(438.7931 469.0534)">00000000</text>
  <rect class="cls-8" x="433.96" y="481.4702" width="68" height="18"/>
  <text class="cls-9" transform="translate(438.7931 494.0534)">10011011</text>
  <rect class="cls-6" x="433.96" y="506.4702" width="68" height="18"/>
  <rect class="cls-6" x="433.96" y="583.8869" width="68" height="37.9167"/>
  <text class="cls-7" transform="translate(438.7931 519.0534)">00000000</text>
  <rect class="cls-8" x="433.96" y="531.4702" width="68" height="18"/>
  <rect class="cls-6" x="334.9704" y="56.4702" width="18.6667" height="18"/>
  <rect class="cls-6" x="334.9704" y="81.4702" width="18.6667" height="18"/>
  <rect class="cls-6" x="334.9704" y="106.4702" width="18.6667" height="18"/>
  <rect class="cls-6" x="334.9704" y="131.4702" width="18.6667" height="18"/>
  <rect class="cls-6" x="334.9704" y="156.4702" width="18.6667" height="18"/>
  <rect class="cls-6" x="334.9704" y="181.4702" width="18.6667" height="18"/>
  <rect class="cls-6" x="334.9704" y="206.4702" width="18.6667" height="18"/>
  <rect class="cls-6" x="334.9704" y="231.4702" width="18.6667" height="18"/>
  <rect class="cls-6" x="334.9704" y="256.4702" width="18.6667" height="18"/>
  <rect class="cls-6" x="334.9704" y="281.4702" width="18.6667" height="18"/>
  <rect class="cls-6" x="334.9704" y="306.4702" width="18.6667" height="18"/>
  <rect class="cls-6" x="334.9704" y="331.4702" width="18.6667" height="18"/>
  <rect class="cls-6" x="334.9704" y="356.4702" width="18.6667" height="18"/>
  <rect class="cls-6" x="334.9704" y="381.4702" width="18.6667" height="18"/>
  <rect class="cls-6" x="334.9704" y="406.4702" width="18.6667" height="18"/>
  <rect class="cls-6" x="334.9704" y="431.4702" width="18.6667" height="18"/>
  <rect class="cls-6" x="334.9704" y="456.4702" width="18.6667" height="18"/>
  <rect class="cls-6" x="334.9704" y="481.4702" width="18.6667" height="18"/>
  <rect class="cls-6" x="334.9704" y="506.4702" width="18.6667" height="18"/>
  <rect class="cls-6" x="334.9704" y="531.4702" width="18.6667" height="18"/>
  <text class="cls-9" transform="translate(438.7931 544.0534)">10011011</text>
  <path class="cls-10" d="M401.5,83h-18V65h18a9,9,0,0,1,0,18Z" transform="translate(-2.6963 -8.5298)"/>
  <text class="cls-7" transform="translate(389.5535 94.0534)">5</text>
  <path class="cls-10" d="M401.5,108h-18V90h18a9,9,0,0,1,0,18Z" transform="translate(-2.6963 -8.5298)"/>
  <text class="cls-7" transform="translate(389.5535 119.0534)">5</text>
  <path class="cls-10" d="M401.5,133h-18V115h18a9,9,0,0,1,0,18Z" transform="translate(-2.6963 -8.5298)"/>
  <text class="cls-7" transform="translate(389.5535 144.0534)">5</text>
  <path class="cls-10" d="M401.5,158h-18V140h18a9,9,0,0,1,0,18Z" transform="translate(-2.6963 -8.5298)"/>
  <text class="cls-7" transform="translate(389.5535 169.0534)">5</text>
  <path class="cls-10" d="M401.5,183h-18V165h18a9,9,0,0,1,0,18Z" transform="translate(-2.6963 -8.5298)"/>
  <text class="cls-7" transform="translate(389.5535 194.0534)">5</text>
  <path class="cls-10" d="M401.5,208h-18V190h18a9,9,0,0,1,0,18Z" transform="translate(-2.6963 -8.5298)"/>
  <text class="cls-7" transform="translate(389.5535 219.0534)">5</text>
  <path class="cls-10" d="M401.5,233h-18V215h18a9,9,0,0,1,0,18Z" transform="translate(-2.6963 -8.5298)"/>
  <text class="cls-7" transform="translate(389.5535 244.0534)">5</text>
  <path class="cls-10" d="M401.5,258h-18V240h18a9,9,0,0,1,0,18Z" transform="translate(-2.6963 -8.5298)"/>
  <text class="cls-7" transform="translate(389.5535 269.0534)">5</text>
  <path class="cls-10" d="M401.5,283h-18V265h18a9,9,0,0,1,0,18Z" transform="translate(-2.6963 -8.5298)"/>
  <text class="cls-7" transform="translate(389.5535 294.0534)">5</text>
  <path class="cls-10" d="M401.5,308h-18V290h18a9,9,0,0,1,0,18Z" transform="translate(-2.6963 -8.5298)"/>
  <text class="cls-7" transform="translate(389.5535 319.0534)">5</text>
  <path class="cls-10" d="M401.5,333h-18V315h18a9,9,0,0,1,0,18Z" transform="translate(-2.6963 -8.5298)"/>
  <text class="cls-7" transform="translate(389.5535 344.0534)">5</text>
  <path class="cls-10" d="M401.5,358h-18V340h18a9,9,0,0,1,0,18Z" transform="translate(-2.6963 -8.5298)"/>
  <text class="cls-7" transform="translate(389.5535 369.0534)">5</text>
  <path class="cls-10" d="M401.5,383h-18V365h18a9,9,0,0,1,0,18Z" transform="translate(-2.6963 -8.5298)"/>
  <text class="cls-7" transform="translate(389.5535 394.0534)">5</text>
  <path class="cls-10" d="M401.5,408h-18V390h18a9,9,0,0,1,0,18Z" transform="translate(-2.6963 -8.5298)"/>
  <text class="cls-7" transform="translate(389.5535 419.0534)">5</text>
  <path class="cls-10" d="M401.5,433h-18V415h18a9,9,0,0,1,0,18Z" transform="translate(-2.6963 -8.5298)"/>
  <text class="cls-7" transform="translate(389.5535 444.0534)">5</text>
  <path class="cls-10" d="M401.5,458h-18V440h18a9,9,0,0,1,0,18Z" transform="translate(-2.6963 -8.5298)"/>
  <text class="cls-7" transform="translate(389.5535 469.0534)">5</text>
  <path class="cls-10" d="M401.5,483h-18V465h18a9,9,0,0,1,0,18Z" transform="translate(-2.6963 -8.5298)"/>
  <text class="cls-7" transform="translate(389.5535 494.0534)">5</text>
  <path class="cls-10" d="M401.5,508h-18V490h18a9,9,0,0,1,0,18Z" transform="translate(-2.6963 -8.5298)"/>
  <text class="cls-7" transform="translate(389.5535 519.0534)">5</text>
  <path class="cls-10" d="M401.5,533h-18V515h18a9,9,0,0,1,0,18Z" transform="translate(-2.6963 -8.5298)"/>
  <text class="cls-7" transform="translate(389.5535 544.0534)">5</text>
  <path class="cls-10" d="M401.5,558h-18V540h18a9,9,0,0,1,0,18Z" transform="translate(-2.6963 -8.5298)"/>
  <text class="cls-7" transform="translate(16.6943 69.4702)">00010101</text>
  <text class="cls-7" transform="translate(16.6943 94.479)">11011101</text>
  <text class="cls-7" transform="translate(16.6943 119.4878)">00100101</text>
  <text class="cls-7" transform="translate(16.6943 144.4966)">11000011</text>
  <text class="cls-7" transform="translate(16.6943 169.5054)">01101010</text>
  <text class="cls-7" transform="translate(16.6943 194.5142)">11000101</text>
  <text class="cls-7" transform="translate(16.6943 219.5229)">01010011</text>
  <text class="cls-7" transform="translate(16.6943 244.5317)">00110110</text>
  <text class="cls-7" transform="translate(16.6943 269.5405)">00011111</text>
  <text class="cls-7" transform="translate(16.6943 294.5493)">10010100</text>
  <text class="cls-7" transform="translate(16.6943 319.5581)">01011101</text>
  <text class="cls-7" transform="translate(16.6943 344.5669)">00100010</text>
  <text class="cls-7" transform="translate(16.6943 369.5757)">01101011</text>
  <text class="cls-7" transform="translate(16.6943 394.5845)">00001001</text>
  <text class="cls-7" transform="translate(16.6943 419.5933)">10000001</text>
  <text class="cls-7" transform="translate(16.6943 444.6021)">11100010</text>
  <text class="cls-7" transform="translate(16.6943 469.6108)">00011100</text>
  <text class="cls-7" transform="translate(16.6943 494.6196)">11010111</text>
  <text class="cls-7" transform="translate(16.6943 519.6284)">11100100</text>
  <text class="cls-7" transform="translate(16.6943 544.6369)">10111010</text>
  <circle cx="126.3037" cy="65.4702" r="3.5"/>
  <circle cx="101.3037" cy="290.9702" r="3.5"/>
  <circle cx="126.3037" cy="290.9702" r="3.5"/>
  <circle cx="151.3037" cy="290.9702" r="3.5"/>
  <circle cx="176.3037" cy="290.9702" r="3.5"/>
  <circle cx="126.3037" cy="340.4702" r="3.5"/>
  <circle cx="226.3037" cy="340.4702" r="3.5"/>
  <circle cx="251.3037" cy="340.4702" r="3.5"/>
  <circle cx="126.3037" cy="240.4702" r="3.5"/>
  <circle cx="176.3037" cy="240.4702" r="3.5"/>
  <circle cx="251.3037" cy="240.4702" r="3.5"/>
  <circle cx="201.3037" cy="165.4702" r="3.5"/>
  <circle cx="226.3037" cy="165.4702" r="3.5"/>
  <circle cx="251.3037" cy="165.4702" r="3.5"/>
  <circle cx="101.3037" cy="515.4702" r="3.5"/>
  <circle cx="126.3037" cy="465.4702" r="3.5"/>
  <circle cx="151.3037" cy="465.4702" r="3.5"/>
  <circle cx="176.3037" cy="465.4702" r="3.5"/>
  <circle cx="201.3037" cy="465.4702" r="3.5"/>
  <circle cx="101.3037" cy="540.4702" r="3.5"/>
  <circle cx="126.3037" cy="540.4702" r="3.5"/>
  <circle cx="176.3037" cy="540.4702" r="3.5"/>
  <circle cx="201.3037" cy="540.4702" r="3.5"/>
  <circle cx="226.3037" cy="540.4702" r="3.5"/>
  <circle cx="251.3037" cy="540.4702" r="3.5"/>
  <circle cx="101.3037" cy="440.4702" r="3.5"/>
  <circle cx="226.3037" cy="440.4702" r="3.5"/>
  <circle cx="251.3037" cy="440.4702" r="3.5"/>
  <circle cx="101.3037" cy="490.4702" r="3.5"/>
  <circle cx="151.3037" cy="490.4702" r="3.5"/>
  <circle cx="176.3037" cy="490.4702" r="3.5"/>
  <circle cx="251.3037" cy="490.4702" r="3.5"/>
  <circle cx="276.3037" cy="490.4702" r="3.5"/>
  <circle cx="101.3037" cy="415.4702" r="3.5"/>
  <circle cx="126.3037" cy="415.4702" r="3.5"/>
  <circle cx="151.3037" cy="415.4702" r="3.5"/>
  <circle cx="226.3037" cy="415.4702" r="3.5"/>
  <circle cx="276.3037" cy="415.4702" r="3.5"/>
  <circle cx="126.3037" cy="390.4702" r="3.5"/>
  <circle cx="151.3037" cy="390.4702" r="3.5"/>
  <circle cx="201.3037" cy="390.4702" r="3.5"/>
  <circle cx="226.3037" cy="390.4702" r="3.5"/>
  <circle cx="276.3037" cy="390.4702" r="3.5"/>
  <circle cx="201.3037" cy="365.4702" r="3.5"/>
  <circle cx="226.3037" cy="365.4702" r="3.5"/>
  <circle cx="251.3037" cy="365.4702" r="3.5"/>
  <circle cx="276.3037" cy="365.4702" r="3.5"/>
  <circle cx="151.3037" cy="315.4702" r="3.5"/>
  <circle cx="176.3037" cy="315.4702" r="3.5"/>
  <circle cx="201.3037" cy="315.4702" r="3.5"/>
  <circle cx="276.3037" cy="315.4702" r="3.5"/>
  <circle cx="126.3037" cy="265.4702" r="3.5"/>
  <circle cx="151.3037" cy="265.4702" r="3.5"/>
  <circle cx="176.3037" cy="265.4702" r="3.5"/>
  <circle cx="201.3037" cy="265.4702" r="3.5"/>
  <circle cx="251.3037" cy="265.4702" r="3.5"/>
  <circle cx="276.3037" cy="265.4702" r="3.5"/>
  <circle cx="151.3037" cy="215.4702" r="3.5"/>
  <circle cx="176.3037" cy="215.4702" r="3.5"/>
  <circle cx="226.3037" cy="215.4702" r="3.5"/>
  <circle cx="251.3037" cy="215.4702" r="3.5"/>
  <circle cx="276.3037" cy="215.4702" r="3.5"/>
  <circle cx="101.3037" cy="190.4702" r="3.5"/>
  <circle cx="151.3037" cy="190.4702" r="3.5"/>
  <circle cx="276.3037" cy="190.4702" r="3.5"/>
  <circle cx="101.3037" cy="140.4702" r="3.5"/>
  <circle cx="151.3037" cy="140.4702" r="3.5"/>
  <circle cx="226.3037" cy="140.4702" r="3.5"/>
  <circle cx="251.3037" cy="140.4702" r="3.5"/>
  <circle cx="276.3037" cy="140.4702" r="3.5"/>
  <circle cx="126.3037" cy="115.4702" r="3.5"/>
  <circle cx="276.3037" cy="115.4702" r="3.5"/>
  <circle cx="101.3037" cy="90.4702" r="3.5"/>
  <circle cx="151.3037" cy="90.4702" r="3.5"/>
  <circle cx="176.3037" cy="90.4702" r="3.5"/>
  <circle cx="201.3037" cy="90.4702" r="3.5"/>
  <circle cx="276.3037" cy="90.4702" r="3.5"/>
  <circle cx="151.3037" cy="65.4702" r="3.5"/>
  <circle cx="176.3037" cy="65.4702" r="3.5"/>
  <circle cx="276.3037" cy="65.4702" r="3.5"/>
  <text class="cls-11" transform="translate(159.637 10.3035)">input vector</text>
  <text class="cls-11" transform="translate(368.9704 48.3034)">threshold</text>
  <text class="cls-11" transform="translate(17.3037 55.3034)">addresses</text>
  <text class="cls-11" transform="translate(327.6312 38.3034)">match<tspan x="1.6611" y="10">count</tspan></text>
  <text class="cls-11" transform="translate(443.6302 48.3034)">registers</text>
  <text class="cls-11" transform="translate(447.2865 594.97)">pooling<tspan x="12.3486" y="11">for</tspan><tspan x="2.6689" y="22">output</tspan></text>
  <text class="cls-11" transform="translate(10.3037 324.6602) rotate(-90)">hard locations</text>
</svg>
